<?xml version="1.0" standalone="no"?>
<!DOCTYPE svg PUBLIC "-//W3C//DTD SVG 20010904//EN"
 "http://www.w3.org/TR/2001/REC-SVG-20010904/DTD/svg10.dtd">
<svg version="1.0" xmlns="http://www.w3.org/2000/svg"
 width="512.000000pt" height="512.000000pt" viewBox="0 0 512.000000 512.000000"
 preserveAspectRatio="xMidYMid meet">

<g transform="translate(0.000000,512.000000) scale(0.100000,-0.100000)"
fill="#000000" stroke="none">
<path d="M1305 5015 l-25 -24 0 -751 0 -751 25 -24 c23 -24 29 -25 160 -25
l135 0 0 -80 0 -80 -735 0 -736 0 -25 -25 -26 -26 4 -312 c4 -286 6 -317 25
-368 29 -79 50 -117 94 -173 l39 -49 0 -1099 0 -1099 25 -24 24 -25 2271 0
2271 0 24 25 25 24 0 1099 0 1099 39 49 c44 56 65 94 94 173 19 51 21 82 25
368 l4 312 -26 26 -25 25 -736 0 -735 0 0 80 0 80 135 0 c131 0 137 1 160 25
l25 24 0 751 0 751 -25 24 -24 25 -1231 0 -1231 0 -24 -25z m2375 -775 l0
-640 -1120 0 -1120 0 0 640 0 640 1120 0 1120 0 0 -640z m-320 -880 l0 -80
-800 0 -800 0 0 80 0 80 800 0 800 0 0 -80z m-2135 -1053 c57 -54 183 -120
263 -136 207 -43 431 45 565 219 l27 35 27 -35 c81 -105 220 -194 341 -219
207 -43 431 45 565 219 l27 35 27 -35 c81 -105 220 -194 341 -219 202 -42 427
42 553 205 l42 55 19 -32 c62 -103 226 -206 362 -230 101 -17 224 -3 319 36
16 7 17 -44 17 -979 l0 -986 -1320 0 -1320 0 0 135 c0 131 -1 137 -25 160 -20
21 -34 25 -80 25 l-55 0 0 695 0 696 -25 24 -24 25 -591 0 -591 0 -24 -25 -25
-24 0 -696 0 -695 -55 0 c-46 0 -60 -4 -80 -25 -24 -23 -25 -29 -25 -160 l0
-135 -40 0 -40 0 0 985 c0 542 2 985 3 985 2 0 30 -9 63 -20 193 -67 420 -13
568 135 35 35 68 75 72 87 6 21 8 20 37 -18 17 -21 54 -61 82 -87z m535 -1107
l0 -640 -480 0 -480 0 0 640 0 640 480 0 480 0 0 -640z"/>
<path d="M1520 4584 c0 -76 5 -154 12 -176 14 -48 76 -121 118 -138 l30 -12 0
-249 0 -249 80 0 80 0 0 249 c0 244 1 250 21 256 37 12 92 69 115 120 21 45
24 64 24 193 l0 142 -80 0 -80 0 0 -135 c0 -131 -1 -137 -25 -160 -32 -33 -78
-33 -110 0 -24 23 -25 29 -25 160 l0 135 -80 0 -80 0 0 -136z"/>
<path d="M2441 4704 c-253 -68 -410 -331 -346 -579 67 -256 329 -415 580 -350
256 67 415 329 350 578 -67 259 -333 419 -584 351z m234 -171 c70 -23 155
-109 180 -183 42 -123 15 -241 -74 -331 -89 -89 -209 -116 -331 -74 -76 25
-160 109 -185 185 -38 111 -16 232 56 314 93 106 213 136 354 89z"/>
<path d="M2452 4454 c-118 -59 -165 -198 -108 -319 102 -220 437 -156 454 86
8 106 -41 193 -133 235 -70 33 -145 32 -213 -2z m142 -145 c58 -27 55 -115 -5
-139 -63 -26 -125 36 -100 99 19 44 60 60 105 40z"/>
<path d="M3310 4711 c-71 -23 -132 -75 -165 -141 -10 -19 -20 -62 -23 -96 -9
-114 31 -208 115 -269 l42 -30 0 -207 1 -208 80 0 80 0 1 208 0 207 42 30 c84
61 124 155 115 269 -6 70 -26 116 -72 164 -57 61 -153 94 -216 73z m95 -177
c45 -49 45 -139 0 -188 -13 -14 -33 -26 -45 -26 -29 0 -68 45 -76 86 -13 72
27 154 76 154 12 0 32 -12 45 -26z"/>
<path d="M2185 1975 l-25 -24 0 -751 0 -751 25 -24 24 -25 1151 0 1151 0 24
25 25 24 0 751 0 751 -25 24 -24 25 -1151 0 -1151 0 -24 -25z m883 -573 c79
-55 185 -55 265 0 27 19 27 19 55 0 79 -55 185 -55 265 0 27 19 27 19 55 0 45
-32 100 -45 162 -39 l57 6 6 -37 c7 -55 44 -146 81 -201 l33 -48 -25 -49 c-57
-112 -102 -298 -102 -421 l0 -53 -40 0 -40 0 0 280 0 280 -80 0 -80 0 0 -280
0 -280 -120 0 -120 0 0 160 0 160 80 0 80 0 0 80 0 80 -240 0 -240 0 0 -80 0
-80 80 0 80 0 0 -160 0 -160 -120 0 -120 0 0 280 0 280 -80 0 -80 0 0 -280 0
-280 -40 0 -40 0 0 53 c0 123 -45 309 -102 421 l-25 49 33 48 c37 55 74 146
81 201 l6 38 53 -6 c60 -8 126 7 164 36 31 24 26 24 58 2z"/>
<path d="M960 1200 l0 -160 80 0 80 0 0 160 0 160 -80 0 -80 0 0 -160z"/>
</g>
</svg>
